<?xml version="1.0" standalone="no"?>
<svg xmlns="http://www.w3.org/2000/svg" xmlns:xlink="http://www.w3.org/1999/xlink" version="1.1" id="v-2" width="100%" height="100%" xmlns:ev="http://www.w3.org/2001/xml-events" style="overflow: hidden; "><g id="v-3" class="joint-viewport svg-pan-zoom_viewport" transform="matrix(1,0,0,1,0,0)" style="transform: matrix(1, 0, 0, 1, 0, 0);"><g model-id="0394f77f-0ae8-4bc8-b22e-4230dd5265f0" id="j_500" class="joint-cell joint-type-uml joint-type-uml-class joint-element joint-theme-default" data-type="uml.Class" fill="#ffffff" stroke="none" transform="translate(5,0)"><g class="rotatable" id="v-7004"><g class="scalable" transform="scale(1.1456005859375,0.6933333333333334)"><rect class="uml-class-name-rect" id="v-7005" width="200" stroke="#ffffff" stroke-width="0.5" fill="#feb662" height="40" transform="translate(0,0)"/><rect class="uml-class-attrs-rect" id="v-7006" width="200" stroke="#fff" stroke-width="0.5" fill="#fdc886" height="260" transform="translate(0,40)"/><rect class="uml-class-methods-rect" id="v-7007" width="200" stroke="#fff" stroke-width="0.5" fill="#fdc886" display="none" height="20" transform="translate(0,300)"/></g><text class="uml-class-name-text" id="v-7008" font-size="12" xml:space="preserve" y="0.8em" text-anchor="middle" font-weight="bold" fill="black" font-family="Times New Roman" transform="matrix(1,0,0,1,114.6,8.3)"><tspan id="v-7011" class="v-line" dy="0em">Customer</tspan></text><text class="uml-class-attrs-text" id="v-7009" font-size="12" xml:space="preserve" y="0.8em" fill="black" font-family="monospace" transform="matrix(1,0,0,1,5,47.3)"><tspan id="v-7012" class="v-line" dy="0em">INT            id                  PK AI</tspan><tspan id="v-7013" class="v-line" dy="1em" x="0">TEXT           email</tspan><tspan id="v-7014" class="v-line" dy="1em" x="0">TEXT           first_name</tspan><tspan id="v-7015" class="v-line" dy="1em" x="0">TEXT           last_name</tspan><tspan id="v-7016" class="v-line" dy="1em" x="0">TEXT           phone</tspan><tspan id="v-7017" class="v-line" dy="1em" x="0">TEXT           address</tspan><tspan id="v-7018" class="v-line" dy="1em" x="0">TEXT           street</tspan><tspan id="v-7019" class="v-line" dy="1em" x="0">TEXT           city</tspan><tspan id="v-7020" class="v-line" dy="1em" x="0">TEXT           state</tspan><tspan id="v-7021" class="v-line" dy="1em" x="0">TEXT           zip_code</tspan><tspan id="v-7022" class="v-line" dy="1em" x="0">DATETIME       created_at          NN</tspan><tspan id="v-7023" class="v-line" dy="1em" x="0">DATETIME       updated_at          NN</tspan></text><text class="uml-class-methods-text" id="v-7010" font-size="12" display="none" xml:space="preserve" y="0.8em" fill="black" font-family="Times New Roman" transform="matrix(1,0,0,1,5,5)"><tspan id="v-7024" class="v-line v-empty-line" dy="0em" style="fill-opacity: 0; stroke-opacity: 0;">-</tspan></text></g></g><g model-id="c641dc38-2cc1-471f-b4a7-9ac2638e7642" id="j_501" class="joint-cell joint-type-uml joint-type-uml-class joint-element joint-theme-default" data-type="uml.Class" fill="#ffffff" stroke="none" transform="translate(315,4)"><g class="rotatable" id="v-7025"><g class="scalable" transform="scale(1.1456005859375,0.69375)"><rect class="uml-class-name-rect" id="v-7026" width="200" stroke="#ffffff" stroke-width="0.5" fill="#feb662" height="40" transform="translate(0,0)"/><rect class="uml-class-attrs-rect" id="v-7027" width="200" stroke="#fff" stroke-width="0.5" fill="#fdc886" height="280" transform="translate(0,40)"/><rect class="uml-class-methods-rect" id="v-7028" width="200" stroke="#fff" stroke-width="0.5" fill="#fdc886" display="none" height="20" transform="translate(0,320)"/></g><text class="uml-class-name-text" id="v-7029" font-size="12" xml:space="preserve" y="0.8em" text-anchor="middle" font-weight="bold" fill="black" font-family="Times New Roman" transform="matrix(1,0,0,1,114.6,8.3)"><tspan id="v-7032" class="v-line" dy="0em">Store</tspan></text><text class="uml-class-attrs-text" id="v-7030" font-size="12" xml:space="preserve" y="0.8em" fill="black" font-family="monospace" transform="matrix(1,0,0,1,5,48.3)"><tspan id="v-7033" class="v-line" dy="0em">INT            id                  PK AI</tspan><tspan id="v-7034" class="v-line" dy="1em" x="0">TEXT           store_name</tspan><tspan id="v-7035" class="v-line" dy="1em" x="0">TEXT           phone</tspan><tspan id="v-7036" class="v-line" dy="1em" x="0">TEXT           email</tspan><tspan id="v-7037" class="v-line" dy="1em" x="0">TEXT           address</tspan><tspan id="v-7038" class="v-line" dy="1em" x="0">TEXT           street</tspan><tspan id="v-7039" class="v-line" dy="1em" x="0">TEXT           city</tspan><tspan id="v-7040" class="v-line" dy="1em" x="0">TEXT           state</tspan><tspan id="v-7041" class="v-line" dy="1em" x="0">TEXT           zip_code</tspan><tspan id="v-7042" class="v-line" dy="1em" x="0">INT            customer_id         NN FK</tspan><tspan id="v-7043" class="v-line" dy="1em" x="0">DATETIME       created_at          NN</tspan><tspan id="v-7044" class="v-line" dy="1em" x="0">DATETIME       updated_at          NN</tspan><tspan id="v-7045" class="v-line" dy="1em" x="0">DATETIME       deleted_at</tspan></text><text class="uml-class-methods-text" id="v-7031" font-size="12" display="none" xml:space="preserve" y="0.8em" fill="black" font-family="Times New Roman" transform="matrix(1,0,0,1,5,5)"><tspan id="v-7046" class="v-line v-empty-line" dy="0em" style="fill-opacity: 0; stroke-opacity: 0;">-</tspan></text></g></g><g model-id="117489a8-611d-420e-a61b-f395b9e549ac" id="j_502" class="joint-cell joint-type-uml joint-type-uml-class joint-element joint-theme-default" data-type="uml.Class" fill="#ffffff" stroke="none" transform="translate(0,260)"><g class="rotatable" id="v-7047"><g class="scalable" transform="scale(1.1438232421875,0.6875)"><rect class="uml-class-name-rect" id="v-7048" width="200" stroke="#ffffff" stroke-width="0.5" fill="#feb662" height="40" transform="translate(0,0)"/><rect class="uml-class-attrs-rect" id="v-7049" width="200" stroke="#fff" stroke-width="0.5" fill="#fdc886" height="120" transform="translate(0,40)"/><rect class="uml-class-methods-rect" id="v-7050" width="200" stroke="#fff" stroke-width="0.5" fill="#fdc886" display="none" height="20" transform="translate(0,160)"/></g><text class="uml-class-name-text" id="v-7051" font-size="12" xml:space="preserve" y="0.8em" text-anchor="middle" font-weight="bold" fill="black" font-family="Times New Roman" transform="matrix(1,0,0,1,114.4,8.1)"><tspan id="v-7054" class="v-line" dy="0em">Order</tspan></text><text class="uml-class-attrs-text" id="v-7052" font-size="12" xml:space="preserve" y="0.8em" fill="black" font-family="monospace" transform="matrix(1,0,0,1,5,40.1)"><tspan id="v-7055" class="v-line" dy="0em">INT            id                  PK AI</tspan><tspan id="v-7056" class="v-line" dy="1em" x="0">INT            customer_id         NN FK</tspan><tspan id="v-7057" class="v-line" dy="1em" x="0">FLOAT          total_price         NN</tspan><tspan id="v-7058" class="v-line" dy="1em" x="0">DATETIME       created_at          NN</tspan><tspan id="v-7059" class="v-line" dy="1em" x="0">DATETIME       deleted_at</tspan></text><text class="uml-class-methods-text" id="v-7053" font-size="12" display="none" xml:space="preserve" y="0.8em" fill="black" font-family="Times New Roman" transform="matrix(1,0,0,1,5,5)"><tspan id="v-7060" class="v-line v-empty-line" dy="0em" style="fill-opacity: 0; stroke-opacity: 0;">-</tspan></text></g></g><g model-id="7db611b4-ed9b-4c09-b675-1b71f69c497b" id="j_503" class="joint-cell joint-type-uml joint-type-uml-class joint-element joint-theme-default" data-type="uml.Class" fill="#ffffff" stroke="none" transform="translate(325,258)"><g class="rotatable" id="v-7061"><g class="scalable" transform="scale(1.0885888671875,0.6875)"><rect class="uml-class-name-rect" id="v-7062" width="200" stroke="#ffffff" stroke-width="0.5" fill="#feb662" height="40" transform="translate(0,0)"/><rect class="uml-class-attrs-rect" id="v-7063" width="200" stroke="#fff" stroke-width="0.5" fill="#fdc886" height="120" transform="translate(0,40)"/><rect class="uml-class-methods-rect" id="v-7064" width="200" stroke="#fff" stroke-width="0.5" fill="#fdc886" display="none" height="20" transform="translate(0,160)"/></g><text class="uml-class-name-text" id="v-7065" font-size="12" xml:space="preserve" y="0.8em" text-anchor="middle" font-weight="bold" fill="black" font-family="Times New Roman" transform="matrix(1,0,0,1,108.9,8.1)"><tspan id="v-7068" class="v-line" dy="0em">Order_Detail</tspan></text><text class="uml-class-attrs-text" id="v-7066" font-size="12" xml:space="preserve" y="0.8em" fill="black" font-family="monospace" transform="matrix(1,0,0,1,5,40.1)"><tspan id="v-7069" class="v-line" dy="0em">INT            id                  PK AI</tspan><tspan id="v-7070" class="v-line" dy="1em" x="0">INT            product_id          NN</tspan><tspan id="v-7071" class="v-line" dy="1em" x="0">INT            order_id            NN FK</tspan><tspan id="v-7072" class="v-line" dy="1em" x="0">FLOAT          price               NN</tspan><tspan id="v-7073" class="v-line" dy="1em" x="0">INT            quantity            NN</tspan></text><text class="uml-class-methods-text" id="v-7067" font-size="12" display="none" xml:space="preserve" y="0.8em" fill="black" font-family="Times New Roman" transform="matrix(1,0,0,1,5,5)"><tspan id="v-7074" class="v-line v-empty-line" dy="0em" style="fill-opacity: 0; stroke-opacity: 0;">-</tspan></text></g></g><g model-id="f8b22503-9709-413c-bdd9-f8106545bdf7" id="j_504" class="joint-cell joint-type-uml joint-type-uml-class joint-element joint-theme-default" data-type="uml.Class" fill="#ffffff" stroke="none" transform="translate(624,40)"><g class="rotatable" id="v-7075"><g class="scalable" transform="scale(1.1456005859375,0.6916666666666667)"><rect class="uml-class-name-rect" id="v-7076" width="200" stroke="#ffffff" stroke-width="0.5" fill="#feb662" height="40" transform="translate(0,0)"/><rect class="uml-class-attrs-rect" id="v-7077" width="200" stroke="#fff" stroke-width="0.5" fill="#fdc886" height="200" transform="translate(0,40)"/><rect class="uml-class-methods-rect" id="v-7078" width="200" stroke="#fff" stroke-width="0.5" fill="#fdc886" display="none" height="20" transform="translate(0,240)"/></g><text class="uml-class-name-text" id="v-7079" font-size="12" xml:space="preserve" y="0.8em" text-anchor="middle" font-weight="bold" fill="black" font-family="Times New Roman" transform="matrix(1,0,0,1,114.6,8.2)"><tspan id="v-7082" class="v-line" dy="0em">Product</tspan></text><text class="uml-class-attrs-text" id="v-7080" font-size="12" xml:space="preserve" y="0.8em" fill="black" font-family="monospace" transform="matrix(1,0,0,1,5,44.2)"><tspan id="v-7083" class="v-line" dy="0em">INT            id                  PK AI</tspan><tspan id="v-7084" class="v-line" dy="1em" x="0">TEXT           name                NN</tspan><tspan id="v-7085" class="v-line" dy="1em" x="0">INT            stock_quantity      NN</tspan><tspan id="v-7086" class="v-line" dy="1em" x="0">FLOAT          price               NN</tspan><tspan id="v-7087" class="v-line" dy="1em" x="0">INT            store_id            NN FK</tspan><tspan id="v-7088" class="v-line" dy="1em" x="0">INT            category_id         NN FK</tspan><tspan id="v-7089" class="v-line" dy="1em" x="0">DATETIME       created_at          NN</tspan><tspan id="v-7090" class="v-line" dy="1em" x="0">DATETIME       updated_at          NN</tspan><tspan id="v-7091" class="v-line" dy="1em" x="0">DATETIME       deleted_at</tspan></text><text class="uml-class-methods-text" id="v-7081" font-size="12" display="none" xml:space="preserve" y="0.8em" fill="black" font-family="Times New Roman" transform="matrix(1,0,0,1,5,5)"><tspan id="v-7092" class="v-line v-empty-line" dy="0em" style="fill-opacity: 0; stroke-opacity: 0;">-</tspan></text></g></g><g model-id="a3d3f386-d3c9-4f30-a9f0-34cc419ac5a3" id="j_505" class="joint-cell joint-type-uml joint-type-uml-class joint-element joint-theme-default" data-type="uml.Class" fill="#ffffff" stroke="none" transform="translate(927,65)"><g class="rotatable" id="v-7093"><g class="scalable" transform="scale(1.1456005859375,0.6888888888888889)"><rect class="uml-class-name-rect" id="v-7094" width="200" stroke="#ffffff" stroke-width="0.5" fill="#feb662" height="40" transform="translate(0,0)"/><rect class="uml-class-attrs-rect" id="v-7095" width="200" stroke="#fff" stroke-width="0.5" fill="#fdc886" height="140" transform="translate(0,40)"/><rect class="uml-class-methods-rect" id="v-7096" width="200" stroke="#fff" stroke-width="0.5" fill="#fdc886" display="none" height="20" transform="translate(0,180)"/></g><text class="uml-class-name-text" id="v-7097" font-size="12" xml:space="preserve" y="0.8em" text-anchor="middle" font-weight="bold" fill="black" font-family="Times New Roman" transform="matrix(1,0,0,1,114.6,8.2)"><tspan id="v-7100" class="v-line" dy="0em">Category</tspan></text><text class="uml-class-attrs-text" id="v-7098" font-size="12" xml:space="preserve" y="0.8em" fill="black" font-family="monospace" transform="matrix(1,0,0,1,5,41.2)"><tspan id="v-7101" class="v-line" dy="0em">INT            id                  PK AI</tspan><tspan id="v-7102" class="v-line" dy="1em" x="0">TEXT           name                NN</tspan><tspan id="v-7103" class="v-line" dy="1em" x="0">TEXT           description         NN</tspan><tspan id="v-7104" class="v-line" dy="1em" x="0">DATETIME       created_at          NN</tspan><tspan id="v-7105" class="v-line" dy="1em" x="0">DATETIME       updated_at          NN</tspan><tspan id="v-7106" class="v-line" dy="1em" x="0">DATETIME       deleted_at</tspan></text><text class="uml-class-methods-text" id="v-7099" font-size="12" display="none" xml:space="preserve" y="0.8em" fill="black" font-family="Times New Roman" transform="matrix(1,0,0,1,5,5)"><tspan id="v-7107" class="v-line v-empty-line" dy="0em" style="fill-opacity: 0; stroke-opacity: 0;">-</tspan></text></g></g><g model-id="8fb7611a-ab06-4639-83c1-8dbe5fdb98d9" id="j_506" class="joint-cell joint-type-uml joint-type-uml-class joint-element joint-theme-default" data-type="uml.Class" fill="#ffffff" stroke="none" transform="translate(5,434)"><g class="rotatable" id="v-7108"><g class="scalable" transform="scale(1.1235546875,0.6833333333333333)"><rect class="uml-class-name-rect" id="v-7109" width="200" stroke="#ffffff" stroke-width="0.5" fill="#feb662" height="40" transform="translate(0,0)"/><rect class="uml-class-attrs-rect" id="v-7110" width="200" stroke="#fff" stroke-width="0.5" fill="#fdc886" height="80" transform="translate(0,40)"/><rect class="uml-class-methods-rect" id="v-7111" width="200" stroke="#fff" stroke-width="0.5" fill="#fdc886" display="none" height="20" transform="translate(0,120)"/></g><text class="uml-class-name-text" id="v-7112" font-size="12" xml:space="preserve" y="0.8em" text-anchor="middle" font-weight="bold" fill="black" font-family="Times New Roman" transform="matrix(1,0,0,1,112.4,8.1)"><tspan id="v-7115" class="v-line" dy="0em">Billing</tspan></text><text class="uml-class-attrs-text" id="v-7113" font-size="12" xml:space="preserve" y="0.8em" fill="black" font-family="monospace" transform="matrix(1,0,0,1,5,38.1)"><tspan id="v-7116" class="v-line" dy="0em">INT            id                  PK AI</tspan><tspan id="v-7117" class="v-line" dy="1em" x="0">INT            order_id            NN FK</tspan><tspan id="v-7118" class="v-line" dy="1em" x="0">DATETIME       created_at          NN</tspan></text><text class="uml-class-methods-text" id="v-7114" font-size="12" display="none" xml:space="preserve" y="0.8em" fill="black" font-family="Times New Roman" transform="matrix(1,0,0,1,5,5)"><tspan id="v-7119" class="v-line v-empty-line" dy="0em" style="fill-opacity: 0; stroke-opacity: 0;">-</tspan></text></g></g><g model-id="ea394dee-c091-44db-86af-4fa0fd112dba" id="j_507" class="joint-cell joint-type-uml joint-type-uml-class joint-element joint-theme-default" data-type="uml.Class" fill="#ffffff" stroke="none" transform="translate(339,410)"><g class="rotatable" id="v-7120"><g class="scalable" transform="scale(1.1456005859375,0.6875)"><rect class="uml-class-name-rect" id="v-7121" width="200" stroke="#ffffff" stroke-width="0.5" fill="#feb662" height="40" transform="translate(0,0)"/><rect class="uml-class-attrs-rect" id="v-7122" width="200" stroke="#fff" stroke-width="0.5" fill="#fdc886" height="120" transform="translate(0,40)"/><rect class="uml-class-methods-rect" id="v-7123" width="200" stroke="#fff" stroke-width="0.5" fill="#fdc886" display="none" height="20" transform="translate(0,160)"/></g><text class="uml-class-name-text" id="v-7124" font-size="12" xml:space="preserve" y="0.8em" text-anchor="middle" font-weight="bold" fill="black" font-family="Times New Roman" transform="matrix(1,0,0,1,114.6,8.1)"><tspan id="v-7127" class="v-line" dy="0em">Rating</tspan></text><text class="uml-class-attrs-text" id="v-7125" font-size="12" xml:space="preserve" y="0.8em" fill="black" font-family="monospace" transform="matrix(1,0,0,1,5,40.1)"><tspan id="v-7128" class="v-line" dy="0em">INT            id                  PK AI</tspan><tspan id="v-7129" class="v-line" dy="1em" x="0">FLOAT          stars               NN</tspan><tspan id="v-7130" class="v-line" dy="1em" x="0">INT            billing_id          NN FK</tspan><tspan id="v-7131" class="v-line" dy="1em" x="0">DATETIME       created_at          NN</tspan><tspan id="v-7132" class="v-line" dy="1em" x="0">DATETIME       updated_at          NN</tspan></text><text class="uml-class-methods-text" id="v-7126" font-size="12" display="none" xml:space="preserve" y="0.8em" fill="black" font-family="Times New Roman" transform="matrix(1,0,0,1,5,5)"><tspan id="v-7133" class="v-line v-empty-line" dy="0em" style="fill-opacity: 0; stroke-opacity: 0;">-</tspan></text></g></g><g model-id="8c873463-c55f-4fd7-8de8-d0c664aae7b6" id="j_508" class="joint-cell joint-type-uml joint-type-uml-relationship joint-type-uml-relationship-nonidentifying joint-type-uml-relationship-nonidentifying-mandatory_one_optional_many joint-link joint-theme-default" data-type="uml.relationship.nonidentifying.mandatory_one_optional_many" fill="transparent"><path class="connection" stroke="black" d="M 295 110 249 109" id="v-7144" stroke-dasharray="3,3"/><path class="marker-source" fill="none" stroke="black" d="M 0 0 L 10 10 L 0 10 L 10 10 L 0 20 L 10 10 a 5,5 0 1,0 10,0 a 5,5 0 1,0 -10,0" id="v-7142" transform="translate(314.62989866635684,120.99314731075017) scale(1,1) rotate(-177.87890625)"/><path class="marker-target" fill="none" stroke="black" d="M 0 0 L 10 0 M 10 0 L 10 10 L 10 -10 M 15 0 L 15 10 L 15 -10" id="v-7143" transform="translate(233.9999965220126,108.00000078301069) scale(1,1) rotate(2.121093750000057)"/><path class="connection-wrap" d="M 295 110 249 109"/><g class="labels"><g class="label" id="v-7138" label-idx="0" cursor="default" transform="translate(272, 109.5)" fill="black"><rect id="v-7140" fill="white" rx="3" ry="3" width="0" height="0" transform="matrix(1,0,0,1,0,0)"/><text id="v-7139" font-size="14" display="none" xml:space="preserve" y="0.8em" text-anchor="middle" pointer-events="none"><tspan id="v-7141" class="v-line v-empty-line" dy="0em" style="fill-opacity: 0; stroke-opacity: 0;">-</tspan></text></g></g></g><g model-id="d23cc749-851f-4841-acd1-8fa425963253" id="j_509" class="joint-cell joint-type-uml joint-type-uml-relationship joint-type-uml-relationship-nonidentifying joint-type-uml-relationship-nonidentifying-mandatory_one_optional_many joint-link joint-theme-default" data-type="uml.relationship.nonidentifying.mandatory_one_optional_many" fill="transparent"><path class="connection" stroke="black" d="M 116 240 117 223" id="v-7155" stroke-dasharray="3,3"/><path class="marker-source" fill="none" stroke="black" d="M 0 0 L 10 10 L 0 10 L 10 10 L 0 20 L 10 10 a 5,5 0 1,0 10,0 a 5,5 0 1,0 -10,0" id="v-7153" transform="translate(106.00184459907297,259.80772533254884) scale(1,1) rotate(-88.89829254150389)"/><path class="marker-target" fill="none" stroke="black" d="M 0 0 L 10 0 M 10 0 L 10 10 L 10 -10 M 15 0 L 15 10 L 15 -10" id="v-7154" transform="translate(117.00000209500442,207.99999792255434) scale(1,1) rotate(-268.8982849121094)"/><path class="connection-wrap" d="M 116 240 117 223"/><g class="labels"><g class="label" id="v-7149" label-idx="0" cursor="default" transform="translate(116.5, 231.5)" fill="black"><rect id="v-7151" fill="white" rx="3" ry="3" width="0" height="0" transform="matrix(1,0,0,1,0,0)"/><text id="v-7150" font-size="14" display="none" xml:space="preserve" y="0.8em" text-anchor="middle" pointer-events="none"><tspan id="v-7152" class="v-line v-empty-line" dy="0em" style="fill-opacity: 0; stroke-opacity: 0;">-</tspan></text></g></g></g><g model-id="a6961b60-39ed-4ffc-bacb-d47cb45e6c5d" id="j_510" class="joint-cell joint-type-uml joint-type-uml-relationship joint-type-uml-relationship-nonidentifying joint-type-uml-relationship-nonidentifying-mandatory_one_optional_many joint-link joint-theme-default" data-type="uml.relationship.nonidentifying.mandatory_one_optional_many" fill="transparent"><path class="connection" stroke="black" d="M 305 314 244 314" id="v-7166" stroke-dasharray="3,3"/><path class="marker-source" fill="none" stroke="black" d="M 0 0 L 10 10 L 0 10 L 10 10 L 0 20 L 10 10 a 5,5 0 1,0 10,0 a 5,5 0 1,0 -10,0" id="v-7164" transform="translate(325,324) scale(1,1) rotate(-180)"/><path class="marker-target" fill="none" stroke="black" d="M 0 0 L 10 0 M 10 0 L 10 10 L 10 -10 M 15 0 L 15 10 L 15 -10" id="v-7165" transform="translate(229,314) scale(1,1) rotate(0)"/><path class="connection-wrap" d="M 305 314 244 314"/><g class="labels"><g class="label" id="v-7160" label-idx="0" cursor="default" transform="translate(274.5, 314)" fill="black"><rect id="v-7162" fill="white" rx="3" ry="3" width="0" height="0" transform="matrix(1,0,0,1,0,0)"/><text id="v-7161" font-size="14" display="none" xml:space="preserve" y="0.8em" text-anchor="middle" pointer-events="none"><tspan id="v-7163" class="v-line v-empty-line" dy="0em" style="fill-opacity: 0; stroke-opacity: 0;">-</tspan></text></g></g></g><g model-id="c3fbfe69-475d-446f-897c-7616846ab796" id="j_511" class="joint-cell joint-type-uml joint-type-uml-relationship joint-type-uml-relationship-nonidentifying joint-type-uml-relationship-nonidentifying-mandatory_one_optional_many joint-link joint-theme-default" data-type="uml.relationship.nonidentifying.mandatory_one_optional_many" fill="transparent"><path class="connection" stroke="black" d="M 604 120 559 118" id="v-7177" stroke-dasharray="3,3"/><path class="marker-source" fill="none" stroke="black" d="M 0 0 L 10 10 L 0 10 L 10 10 L 0 20 L 10 10 a 5,5 0 1,0 10,0 a 5,5 0 1,0 -10,0" id="v-7175" transform="translate(623.750066951193,129.99687504465152) scale(1,1) rotate(-178.56790161132812)"/><path class="marker-target" fill="none" stroke="black" d="M 0 0 L 10 0 M 10 0 L 10 10 L 10 -10 M 15 0 L 15 10 L 15 -10" id="v-7176" transform="translate(544.0000233232136,117.99999724266304) scale(1,1) rotate(1.4320983886718608)"/><path class="connection-wrap" d="M 604 120 559 118"/><g class="labels"><g class="label" id="v-7171" label-idx="0" cursor="default" transform="translate(581.5, 119)" fill="black"><rect id="v-7173" fill="white" rx="3" ry="3" width="0" height="0" transform="matrix(1,0,0,1,0,0)"/><text id="v-7172" font-size="14" display="none" xml:space="preserve" y="0.8em" text-anchor="middle" pointer-events="none"><tspan id="v-7174" class="v-line v-empty-line" dy="0em" style="fill-opacity: 0; stroke-opacity: 0;">-</tspan></text></g></g></g><g model-id="6a17febc-c109-43d1-9f98-b4c62975718a" id="j_512" class="joint-cell joint-type-uml joint-type-uml-relationship joint-type-uml-relationship-nonidentifying joint-type-uml-relationship-nonidentifying-mandatory_one_optional_many joint-link joint-theme-default" data-type="uml.relationship.nonidentifying.mandatory_one_optional_many" fill="transparent"><path class="connection" stroke="black" d="M 873 125 912 126" id="v-7188" stroke-dasharray="3,3"/><path class="marker-source" fill="none" stroke="black" d="M 0 0 L 10 10 L 0 10 L 10 10 L 0 20 L 10 10 a 5,5 0 1,0 10,0 a 5,5 0 1,0 -10,0" id="v-7186" transform="translate(853.135122129684,115.0009125008194) scale(1,1) rotate(0.77423095703125)"/><path class="marker-target" fill="none" stroke="black" d="M 0 0 L 10 0 M 10 0 L 10 10 L 10 -10 M 15 0 L 15 10 L 15 -10" id="v-7187" transform="translate(926.9999866819688,126.00000026628467) scale(1,1) rotate(-179.22578430175778)"/><path class="connection-wrap" d="M 873 125 912 126"/><g class="labels"><g class="label" id="v-7182" label-idx="0" cursor="default" transform="translate(892.5, 125.5)" fill="black"><rect id="v-7184" fill="white" rx="3" ry="3" width="0" height="0" transform="matrix(1,0,0,1,0,0)"/><text id="v-7183" font-size="14" display="none" xml:space="preserve" y="0.8em" text-anchor="middle" pointer-events="none"><tspan id="v-7185" class="v-line v-empty-line" dy="0em" style="fill-opacity: 0; stroke-opacity: 0;">-</tspan></text></g></g></g><g model-id="1ed8f849-1001-4014-a0dc-8b8df4113ee2" id="j_513" class="joint-cell joint-type-uml joint-type-uml-relationship joint-type-uml-relationship-nonidentifying joint-type-uml-relationship-nonidentifying-mandatory_one_optional_one joint-link joint-theme-default" data-type="uml.relationship.nonidentifying.mandatory_one_optional_one" fill="transparent"><path class="connection" stroke="black" d="M 117 410 116 385" id="v-7199" stroke-dasharray="3,3"/><path class="marker-source" fill="none" stroke="black" d="M 10 0 L 10 20 L 10 10 L 0 10 L 14 10 a 5,5 0 1,0 10,0 a 5,5 0 1,0 -10,0" id="v-7197" transform="translate(107.00122014631236,434.1562309257176) scale(1,1) rotate(-90.89517211914062)"/><path class="marker-target" fill="none" stroke="black" d="M 0 0 L 10 0 M 10 0 L 10 10 L 10 -10 M 15 0 L 15 10 L 15 -10" id="v-7198" transform="translate(115.99999925195209,369.9999998291422) scale(1,1) rotate(89.1048278808594)"/><path class="connection-wrap" d="M 117 410 116 385"/><g class="labels"><g class="label" id="v-7193" label-idx="0" cursor="default" transform="translate(116.5, 397.5)" fill="black"><rect id="v-7195" fill="white" rx="3" ry="3" width="0" height="0" transform="matrix(1,0,0,1,0,0)"/><text id="v-7194" font-size="14" display="none" xml:space="preserve" y="0.8em" text-anchor="middle" pointer-events="none"><tspan id="v-7196" class="v-line v-empty-line" dy="0em" style="fill-opacity: 0; stroke-opacity: 0;">-</tspan></text></g></g></g><g model-id="479bae8a-4749-4d2c-b92f-033ef11903d2" id="j_514" class="joint-cell joint-type-uml joint-type-uml-relationship joint-type-uml-relationship-nonidentifying joint-type-uml-relationship-nonidentifying-mandatory_one_optional_one joint-link joint-theme-default" data-type="uml.relationship.nonidentifying.mandatory_one_optional_one" fill="transparent"><path class="connection" stroke="black" d="M 315 469 245 471" id="v-7210" stroke-dasharray="3,3"/><path class="marker-source" fill="none" stroke="black" d="M 10 0 L 10 20 L 10 10 L 0 10 L 14 10 a 5,5 0 1,0 10,0 a 5,5 0 1,0 -10,0" id="v-7208" transform="translate(339.2751303549351,477.9962028395162) scale(1,1) rotate(-181.57655334472656)"/><path class="marker-target" fill="none" stroke="black" d="M 0 0 L 10 0 M 10 0 L 10 10 L 10 -10 M 15 0 L 15 10 L 15 -10" id="v-7209" transform="translate(230.00000092217456,471.00001452713656) scale(1,1) rotate(-1.576550006866455)"/><path class="connection-wrap" d="M 315 469 245 471"/><g class="labels"><g class="label" id="v-7204" label-idx="0" cursor="default" transform="translate(280, 470)" fill="black"><rect id="v-7206" fill="white" rx="3" ry="3" width="0" height="0" transform="matrix(1,0,0,1,0,0)"/><text id="v-7205" font-size="14" display="none" xml:space="preserve" y="0.8em" text-anchor="middle" pointer-events="none"><tspan id="v-7207" class="v-line v-empty-line" dy="0em" style="fill-opacity: 0; stroke-opacity: 0;">-</tspan></text></g></g></g></g><defs id="v-4"/></svg>